<?xml version="1.0" encoding="UTF-8" standalone="no"?>
<!DOCTYPE svg PUBLIC "-//W3C//DTD SVG 1.1//EN" "http://www.w3.org/Graphics/SVG/1.1/DTD/svg11.dtd">
<svg width="100%" height="100%" viewBox="0 0 382 178" version="1.1" xmlns="http://www.w3.org/2000/svg" xmlns:xlink="http://www.w3.org/1999/xlink" xml:space="preserve" xmlns:serif="http://www.serif.com/" style="fill-rule:evenodd;clip-rule:evenodd;stroke-linejoin:round;stroke-miterlimit:2;">
    <title id="fullstack-ruby-logo-title">Fullstack Ruby</title>
    <g transform="matrix(1,0,0,1,-208.063,-84.1023)">
        <g id="fullstack-ruby-logo-fullstack" transform="matrix(1,0,0,1,-24.9465,65.2731)">
            <g transform="matrix(96,0,0,96,231.136,85.0692)">
                <path d="M0.021,-0L0.161,-0L0.161,-0.28L0.359,-0.28L0.359,-0.412L0.161,-0.412L0.161,-0.554L0.444,-0.554L0.444,-0.69L0.021,-0.69L0.021,-0Z" style="fill:rgb(95,20,49);fill-rule:nonzero;"/>
            </g>
            <g transform="matrix(96,0,0,96,275.872,85.0692)">
                <path d="M0.266,0.01C0.39,0.01 0.512,-0.075 0.512,-0.262L0.512,-0.69L0.372,-0.69L0.372,-0.262C0.372,-0.178 0.339,-0.126 0.266,-0.126C0.192,-0.126 0.16,-0.178 0.16,-0.262L0.16,-0.69L0.02,-0.69L0.02,-0.262C0.02,-0.075 0.142,0.01 0.266,0.01Z" style="fill:rgb(95,20,49);fill-rule:nonzero;"/>
            </g>
            <g transform="matrix(96,0,0,96,327.328,85.0692)">
                <path d="M0.021,-0L0.363,-0L0.363,-0.136L0.161,-0.136L0.161,-0.69L0.021,-0.69L0.021,-0Z" style="fill:rgb(95,20,49);fill-rule:nonzero;"/>
            </g>
            <g transform="matrix(96,0,0,96,363.904,85.0692)">
                <path d="M0.021,-0L0.363,-0L0.363,-0.136L0.161,-0.136L0.161,-0.69L0.021,-0.69L0.021,-0Z" style="fill:rgb(95,20,49);fill-rule:nonzero;"/>
            </g>
            <g transform="matrix(96,0,0,96,400.48,85.0692)">
                <path d="M0.016,-0L0.225,-0C0.343,-0 0.432,-0.079 0.432,-0.201C0.432,-0.264 0.408,-0.321 0.355,-0.357C0.325,-0.381 0.279,-0.397 0.206,-0.422C0.17,-0.434 0.151,-0.457 0.151,-0.49C0.151,-0.529 0.18,-0.554 0.232,-0.554L0.353,-0.554L0.353,-0.69L0.263,-0.69C0.221,-0.69 0.191,-0.69 0.161,-0.684C0.068,-0.664 0.011,-0.59 0.011,-0.491C0.011,-0.433 0.031,-0.383 0.076,-0.345C0.108,-0.316 0.14,-0.305 0.233,-0.271C0.267,-0.258 0.292,-0.235 0.292,-0.199C0.292,-0.161 0.265,-0.136 0.209,-0.136L0.016,-0.136L0.016,-0Z" style="fill:rgb(95,20,49);fill-rule:nonzero;"/>
            </g>
            <g transform="matrix(96,0,0,96,436.288,85.0692)">
                <path d="M0.183,-0L0.323,-0L0.323,-0.554L0.489,-0.554L0.489,-0.69L0.017,-0.69L0.017,-0.554L0.183,-0.554L0.183,-0Z" style="fill:rgb(95,20,49);fill-rule:nonzero;"/>
            </g>
            <g transform="matrix(96,0,0,96,475.936,85.0692)">
                <path d="M0.018,-0L0.158,-0L0.158,-0.123L0.356,-0.123L0.356,-0L0.496,-0L0.496,-0.69C0.204,-0.69 0.018,-0.535 0.018,-0.218L0.018,-0ZM0.159,-0.258C0.167,-0.406 0.232,-0.497 0.356,-0.53L0.356,-0.258L0.159,-0.258Z" style="fill:rgb(95,20,49);fill-rule:nonzero;"/>
            </g>
            <g transform="matrix(96,0,0,96,525.952,85.0692)">
                <path d="M0.372,-0L0.4,-0L0.4,-0.136L0.374,-0.136C0.332,-0.136 0.294,-0.143 0.259,-0.162C0.194,-0.195 0.149,-0.266 0.149,-0.345C0.149,-0.423 0.194,-0.496 0.258,-0.528C0.294,-0.547 0.332,-0.554 0.374,-0.554L0.4,-0.554L0.4,-0.69L0.372,-0.69C0.333,-0.69 0.299,-0.688 0.263,-0.678C0.116,-0.64 0.009,-0.506 0.009,-0.345C0.009,-0.18 0.122,-0.044 0.272,-0.01C0.304,-0.003 0.336,-0 0.372,-0Z" style="fill:rgb(95,20,49);fill-rule:nonzero;"/>
            </g>
            <g transform="matrix(96,0,0,96,566.08,85.0692)">
                <path d="M0.021,-0L0.161,-0L0.161,-0.263L0.183,-0.263C0.286,-0.263 0.342,-0.196 0.342,-0.086L0.342,-0L0.482,-0L0.482,-0.086C0.482,-0.221 0.422,-0.332 0.305,-0.366L0.299,-0.368L0.488,-0.69L0.334,-0.69L0.161,-0.397L0.161,-0.69L0.021,-0.69L0.021,-0Z" style="fill:rgb(95,20,49);fill-rule:nonzero;"/>
            </g>
        </g>
        <g id="fullstack-ruby-logo-ruby" transform="matrix(1.10488,0,0,1,74.8824,167.279)">
            <g transform="matrix(116,0,0,116,231.136,85.0692)">
                <path d="M0.021,-0L0.161,-0L0.161,-0.2L0.198,-0.2C0.282,-0.2 0.339,-0.133 0.339,-0.043L0.339,-0L0.479,-0L0.479,-0.043C0.479,-0.147 0.441,-0.221 0.374,-0.265C0.437,-0.304 0.474,-0.366 0.474,-0.447C0.474,-0.58 0.375,-0.673 0.238,-0.687C0.216,-0.689 0.193,-0.69 0.121,-0.69L0.021,-0.69L0.021,-0ZM0.161,-0.331L0.161,-0.558L0.183,-0.558C0.266,-0.558 0.334,-0.523 0.334,-0.443C0.334,-0.363 0.265,-0.331 0.178,-0.331L0.161,-0.331Z" style="fill:rgb(138,15,36);fill-rule:nonzero;"/>
            </g>
            <g transform="matrix(116,0,0,116,288.672,85.0692)">
                <path d="M0.266,0.01C0.39,0.01 0.512,-0.075 0.512,-0.262L0.512,-0.69L0.372,-0.69L0.372,-0.262C0.372,-0.178 0.339,-0.126 0.266,-0.126C0.192,-0.126 0.16,-0.178 0.16,-0.262L0.16,-0.69L0.02,-0.69L0.02,-0.262C0.02,-0.075 0.142,0.01 0.266,0.01Z" style="fill:rgb(138,15,36);fill-rule:nonzero;"/>
            </g>
            <g transform="matrix(116,0,0,116,351.428,85.0692)">
                <path d="M0.021,-0L0.279,-0C0.417,-0 0.499,-0.092 0.499,-0.197C0.499,-0.271 0.457,-0.329 0.409,-0.355C0.451,-0.381 0.477,-0.429 0.477,-0.488C0.477,-0.579 0.417,-0.672 0.299,-0.687C0.274,-0.69 0.244,-0.69 0.212,-0.69L0.021,-0.69L0.021,-0ZM0.161,-0.412L0.161,-0.558L0.258,-0.558C0.301,-0.558 0.337,-0.531 0.337,-0.485C0.337,-0.44 0.303,-0.412 0.263,-0.412L0.161,-0.412ZM0.161,-0.132L0.161,-0.28L0.278,-0.28C0.325,-0.28 0.359,-0.25 0.359,-0.205C0.359,-0.159 0.323,-0.132 0.279,-0.132L0.161,-0.132Z" style="fill:rgb(138,15,36);fill-rule:nonzero;"/>
            </g>
            <g transform="matrix(116,0,0,116,402.932,85.0692)">
                <path d="M0.204,-0L0.344,-0L0.344,-0.341L0.543,-0.69L0.392,-0.69L0.274,-0.489L0.155,-0.69L0.003,-0.69L0.204,-0.341L0.204,-0Z" style="fill:rgb(138,15,36);fill-rule:nonzero;"/>
            </g>
        </g>
        <g transform="matrix(1,0,0,1,-1.39757,-1.23958)">
            <g transform="matrix(0.355501,-0.101623,0.101623,0.355501,135.116,164.107)">
                <path d="M272.387,230.796C272.387,213.033 257.965,198.611 240.202,198.611L176.932,198.611C162.069,198.611 143.648,217.029 143.648,231.891L143.648,294.001C143.648,312.482 162.174,327.35 177.416,327.35C241.785,327.35 240.202,327.35 240.202,327.35C255.202,327.35 272.387,312.928 272.387,295.165L272.387,230.796Z" style="fill:rgb(80,75,54);fill-opacity:0.75;"/>
            </g>
            <g transform="matrix(0.365646,-0.104821,0.104821,0.365646,135.377,146.12)">
                <path d="M258.428,263.831C258.428,246.068 244.006,231.646 226.243,231.646L161.874,231.646C144.111,231.646 129.689,246.068 129.689,263.831L129.689,328.2C129.689,345.963 144.111,360.385 161.874,360.385L226.243,360.385C244.006,360.385 258.428,345.963 258.428,328.2L258.428,263.831ZM199.02,255.921L198.721,255.71L181.305,262.228C175.818,267.331 165.17,277.429 164.786,277.619C164.406,277.813 157.756,290.384 154.568,296.38L154.854,297.193L153.791,319.44L153.784,319.453L153.784,319.591L153.789,319.582C154.276,334.916 165.221,335.375 170.149,335.517L170.1,335.546L229.285,331.532L229.287,331.501L229.449,331.49L229.38,331.485L229.32,331.069L233.843,271.853L233.792,271.956C233.849,270.006 233.682,268.079 233.211,266.269L233.228,266.271C231.919,260.725 227.902,257.146 221.055,256.024L221.06,256.022L199.02,255.921Z" style="fill:rgb(212,180,107);"/>
            </g>
            <g transform="matrix(0.370162,-0.106018,0.106018,0.370162,216.108,222.452)">
                <path d="M49.971,1.629L49.651,1.403L31.024,8.374C25.156,13.832 13.768,24.632 13.357,24.835C12.951,25.043 5.838,38.488 2.428,44.9L2.735,45.77L1.598,69.564L1.59,69.578L1.59,69.725L1.595,69.715C2.116,86.116 13.823,86.607 19.093,86.758L19.04,86.79L82.34,82.496L82.342,82.464L82.516,82.452L82.442,82.446L82.378,82.002L87.215,18.668L87.16,18.778C87.221,16.693 87.043,14.631 86.539,12.696L86.558,12.698C85.158,6.766 80.861,2.939 73.539,1.739L73.544,1.736L49.971,1.629Z" style="fill:url(#_Linear1);"/>
            </g>
        </g>
        <g transform="matrix(1,0,0,1,-2.12587,-1.17448)">
            <g transform="matrix(0.421311,-0.0590292,0.0590292,0.421311,148.718,125.812)">
                <path d="M272.387,230.796C272.387,213.033 257.965,198.611 240.202,198.611L176.932,198.611C162.069,198.611 143.648,217.029 143.648,231.891L143.648,294.001C143.648,312.482 162.174,327.35 177.416,327.35C241.785,327.35 240.202,327.35 240.202,327.35C255.202,327.35 272.387,312.928 272.387,295.165L272.387,230.796Z" style="fill:rgb(80,75,54);fill-opacity:0.75;"/>
            </g>
            <g transform="matrix(0.426824,-0.0598212,0.0598212,0.426824,152.967,107.53)">
                <path d="M258.428,263.831C258.428,246.068 244.006,231.646 226.243,231.646L161.874,231.646C144.111,231.646 129.689,246.068 129.689,263.831L129.689,328.2C129.689,345.963 144.111,360.385 161.874,360.385L226.243,360.385C244.006,360.385 258.428,345.963 258.428,328.2L258.428,263.831ZM199.02,255.921L198.721,255.71L181.305,262.228C175.818,267.331 165.17,277.429 164.786,277.619C164.406,277.813 157.756,290.384 154.568,296.38L154.854,297.193L153.791,319.44L153.784,319.453L153.784,319.591L153.789,319.582C154.276,334.916 165.221,335.375 170.149,335.517L170.1,335.546L229.285,331.532L229.287,331.501L229.449,331.49L229.38,331.485L229.32,331.069L233.843,271.853L233.792,271.956C233.849,270.006 233.682,268.079 233.211,266.269L233.228,266.271C231.919,260.725 227.902,257.146 221.055,256.024L221.06,256.022L199.02,255.921Z" style="fill:rgb(226,198,130);"/>
            </g>
            <g transform="matrix(0.43313,-0.0612648,0.0612648,0.43313,231.279,205.715)">
                <path d="M49.971,1.629L49.651,1.403L31.024,8.374C25.156,13.832 13.768,24.632 13.357,24.835C12.951,25.043 5.838,38.488 2.428,44.9L2.735,45.77L1.598,69.564L1.59,69.578L1.59,69.725L1.595,69.715C2.116,86.116 13.823,86.607 19.093,86.758L19.04,86.79L82.34,82.496L82.342,82.464L82.516,82.452L82.442,82.446L82.378,82.002L87.215,18.668L87.16,18.778C87.221,16.693 87.043,14.631 86.539,12.696L86.558,12.698C85.158,6.766 80.861,2.939 73.539,1.739L73.544,1.736L49.971,1.629Z" style="fill:url(#_Linear2);"/>
            </g>
        </g>
        <g transform="matrix(1,0,0,1,-1.39757,-1.23958)">
            <g transform="matrix(0.530696,0,0,0.530696,162.095,70.2506)">
                <path d="M272.387,230.796C272.387,213.033 257.965,198.611 240.202,198.611L176.932,198.611C162.069,198.611 143.648,217.029 143.648,231.891L143.648,294.001C143.648,312.482 162.174,327.35 177.416,327.35C241.785,327.35 240.202,327.35 240.202,327.35C255.202,327.35 272.387,312.928 272.387,295.165L272.387,230.796Z" style="fill:rgb(80,75,54);fill-opacity:0.75;"/>
            </g>
            <g transform="matrix(0.548027,0,0,0.548027,168.997,44.8768)">
                <path d="M258.428,263.831C258.428,246.068 244.006,231.646 226.243,231.646L161.874,231.646C144.111,231.646 129.689,246.068 129.689,263.831L129.689,328.2C129.689,345.963 144.111,360.385 161.874,360.385L226.243,360.385C244.006,360.385 258.428,345.963 258.428,328.2L258.428,263.831ZM199.02,255.921L198.721,255.71L181.305,262.228C175.818,267.331 165.17,277.429 164.786,277.619C164.406,277.813 157.756,290.384 154.568,296.38L154.854,297.193L153.791,319.44L153.784,319.453L153.784,319.591L153.789,319.582C154.276,334.916 165.221,335.375 170.149,335.517L170.1,335.546L229.285,331.532L229.287,331.501L229.449,331.49L229.38,331.485L229.32,331.069L233.843,271.853L233.792,271.956C233.849,270.006 233.682,268.079 233.211,266.269L233.228,266.271C231.919,260.725 227.902,257.146 221.055,256.024L221.06,256.022L199.02,255.921Z" style="fill:rgb(236,208,145);"/>
            </g>
            <g transform="matrix(0.57851,0,0,0.57851,248.986,181.192)">
                <path d="M49.971,1.629L49.651,1.403L31.024,8.374C25.156,13.832 13.768,24.632 13.357,24.835C12.951,25.043 5.838,38.488 2.428,44.9L2.735,45.77L1.598,69.564L1.59,69.578L1.59,69.725L1.595,69.715C2.116,86.116 13.823,86.607 19.093,86.758L19.04,86.79L82.34,82.496L82.342,82.464L82.516,82.452L82.442,82.446L82.378,82.002L87.215,18.668L87.16,18.778C87.221,16.693 87.043,14.631 86.539,12.696L86.558,12.698C85.158,6.766 80.861,2.939 73.539,1.739L73.544,1.736L49.971,1.629Z" style="fill:url(#_Linear3);"/>
            </g>
            <g id="path1167" transform="matrix(1.03459,0,0,1.03459,-9.566,-6.9651)">
                <path d="M251.179,206.992L253.966,214.897L266.075,212.181L279.9,199.332L283.802,186.94L277.659,182.602L267.214,186.51C263.924,189.571 257.538,195.627 257.307,195.741C257.08,195.857 253.091,203.397 251.179,206.992ZM260.965,192.792C268.097,185.72 277.291,181.543 280.819,185.103C284.345,188.663 280.606,197.314 273.474,204.382C266.342,211.452 257.261,215.86 253.736,212.3C250.207,208.742 253.833,199.861 260.965,192.792Z" style="fill:rgb(240,217,168);fill-rule:nonzero;stroke:rgb(251,245,233);stroke-width:0.39px;"/>
            </g>
        </g>
    </g>
    <defs>
        <linearGradient id="_Linear1" x1="0" y1="0" x2="1" y2="0" gradientUnits="userSpaceOnUse" gradientTransform="matrix(-18.063,-31.892,31.892,-18.063,76.819,94.556)"><stop offset="0" style="stop-color:rgb(251,118,85);stop-opacity:0.9"/><stop offset="0" style="stop-color:rgb(251,118,85);stop-opacity:0.9"/><stop offset="0.41" style="stop-color:rgb(228,43,30);stop-opacity:0.9"/><stop offset="0.99" style="stop-color:rgb(153,0,0);stop-opacity:0.9"/><stop offset="1" style="stop-color:rgb(153,0,0);stop-opacity:0.9"/></linearGradient>
        <linearGradient id="_Linear2" x1="0" y1="0" x2="1" y2="0" gradientUnits="userSpaceOnUse" gradientTransform="matrix(-18.063,-31.892,31.892,-18.063,76.819,94.556)"><stop offset="0" style="stop-color:rgb(251,118,85);stop-opacity:0.9"/><stop offset="0" style="stop-color:rgb(251,118,85);stop-opacity:0.9"/><stop offset="0.41" style="stop-color:rgb(228,43,30);stop-opacity:0.9"/><stop offset="0.99" style="stop-color:rgb(153,0,0);stop-opacity:0.9"/><stop offset="1" style="stop-color:rgb(153,0,0);stop-opacity:0.9"/></linearGradient>
        <linearGradient id="_Linear3" x1="0" y1="0" x2="1" y2="0" gradientUnits="userSpaceOnUse" gradientTransform="matrix(-18.063,-31.892,31.892,-18.063,76.819,94.556)"><stop offset="0" style="stop-color:rgb(251,118,85);stop-opacity:0.9"/><stop offset="0" style="stop-color:rgb(251,118,85);stop-opacity:0.9"/><stop offset="0.41" style="stop-color:rgb(228,43,30);stop-opacity:0.9"/><stop offset="0.99" style="stop-color:rgb(153,0,0);stop-opacity:0.9"/><stop offset="1" style="stop-color:rgb(153,0,0);stop-opacity:0.9"/></linearGradient>
    </defs>
</svg>
